<svg width="49" height="61" viewBox="0 0 49 61" fill="none" xmlns="http://www.w3.org/2000/svg">
<path d="M4.70598 54.88C4.74863 54.8237 4.79128 54.7673 4.67898 54.7102C4.32563 54.5303 3.45434 54.5387 2.83256 54.585C0.839474 54.7332 7.34008 54.5523 7.66891 54.1391C7.81809 53.9516 7.32416 53.6059 6.73751 53.427C6.15085 53.248 5.33123 53.1944 4.81158 53.261C4.29192 53.3275 4.09708 53.5159 4.12177 53.7078C4.14646 53.8996 4.39658 54.0894 4.66055 54.1923C5.16854 54.3903 5.95128 54.1172 6.76382 53.6833C7.125 53.4905 7.27471 53.1841 7.1472 52.9825C6.39561 51.7943 4.38409 52.6121 3.04482 53.14C2.67382 53.2862 2.3875 53.6909 2.32277 53.9825C2.25804 54.2742 2.4696 54.5235 2.83775 54.6577C4.81139 55.3769 7.5803 54.2417 10.2924 52.8761C10.8219 52.6095 10.8931 52.2419 10.8325 52.026C10.5206 50.9132 7.40921 51.1259 5.79489 51.3002C5.4885 51.3332 5.33716 51.8211 5.284 52.2172C5.23085 52.6134 5.34004 53.0534 5.57304 53.3451C6.57101 54.5946 9.32407 53.8717 11.2927 53.1138C12.1325 52.7905 12.6062 52.0976 12.6812 51.6226C13.1551 48.6182 4.69481 51.5863 3.57181 52.2045C3.32522 52.3403 3.33764 52.7402 3.40928 53.0021C3.75876 54.28 6.95795 54.4975 10.5137 54.6454C12.461 54.7263 14.2487 53.7133 15.7019 52.7671C16.9425 51.9594 17.5184 50.8293 17.8655 49.8983C18.0316 49.4526 18.0402 49.0178 17.9117 48.6461C17.3131 46.9146 13.4484 46.8718 9.8564 47.0957C5.98421 47.3371 3.35083 51.5471 1.54257 54.6437C0.79448 55.9249 0.98148 57.3014 1.16125 58.3186C1.24659 58.8015 1.57954 59.1548 2.03556 59.4382C3.04272 60.0642 4.77658 60.09 6.80643 59.8865C11.1646 59.4497 13.9941 55.2429 15.587 52.3007C16.2509 51.0746 15.8357 49.7576 15.3318 48.8131C14.1554 46.6082 9.71334 47.2541 6.89775 47.5899C5.82491 47.7179 5.18543 48.6244 4.72471 49.3604C4.50283 49.7148 4.44826 50.1081 4.48067 50.4692C4.51309 50.8303 4.67074 51.1671 4.97596 51.4767C6.49132 53.0137 9.8397 52.9283 12.2925 52.904C12.7865 52.8991 13.1567 52.7481 13.4249 52.5222C13.6932 52.2963 13.8447 51.9461 13.7223 51.6269C13.0056 49.7585 8.5728 50.3209 5.89661 50.5394C4.90227 50.6206 4.29754 51.3751 3.9039 51.9662C3.54979 52.498 3.64653 53.1509 3.79195 53.6624C3.86326 53.9132 4.12231 54.073 4.47288 54.195C6.36764 54.8545 8.9703 53.5197 10.5213 52.2794C10.8351 52.0285 10.9784 51.7339 10.7881 51.623C10.5977 51.5121 10.0269 51.5496 9.52616 51.7962C7.4387 52.8242 7.21961 54.8293 7.05693 55.5925C6.9788 55.9591 7.09012 56.3098 7.30832 56.4365C8.62136 57.199 10.6636 54.5699 11.78 53.0795C12.0026 52.7823 12.027 52.4744 11.8139 52.2236C11.6008 51.9727 11.094 51.7548 10.5332 51.7033C9.37579 51.5969 8.18637 52.249 7.1377 53.0134C5.26551 54.3782 5.30312 56.1681 5.30286 56.919C5.30274 57.2679 5.50836 57.5371 5.88383 57.7212C6.78374 58.1625 8.22837 57.8788 9.67673 57.3601C12.3088 56.4174 13.2866 54.0325 13.5569 52.7924C13.6641 52.3008 12.4164 52.1966 11.1646 52.19C9.78929 52.1826 8.42147 52.7079 7.22891 53.4328C6.09988 54.1191 5.52567 55.1832 5.10567 55.9917C4.73886 56.6978 4.74441 57.3686 4.88832 57.8421C4.95849 58.0729 5.25266 58.1845 5.68194 58.2283C8.19516 58.4847 11.4397 55.6669 13.9095 52.938C14.8522 51.8964 15.1104 50.6731 15.2619 49.6948C15.3317 49.2445 15.1955 48.8688 14.8886 48.5981C13.1574 47.0709 8.90437 48.7195 5.73809 50.5042C4.62636 51.4472 3.86152 52.4081 3.46874 53.3933C3.34859 53.8948 3.38919 54.3995 3.43103 54.9196" stroke="white" stroke-width="2" stroke-linecap="round"/>
<path d="M27.4836 2.89326C27.3443 2.89326 26.5707 2.90331 25.3305 3.17779C20.8177 4.17665 24.2219 11.5504 25.0072 13.0047C25.8694 14.6014 28.9282 15.5992 32.4737 16.4893C36.107 17.4015 39.5952 17.2131 42.7797 15.942C44.9012 15.0953 46.7091 12.3955 47.5571 10.7716C48.405 9.14771 47.8959 8.31257 47.1954 7.52948C45.7829 5.95026 43.7254 4.82563 41.6779 3.98519C39.6823 3.16606 37.2408 3.23286 34.8863 3.43658C29.7029 3.88505 26.7477 8.20847 25.3423 10.7474C25.0393 11.2949 25.0841 11.8589 25.2102 12.2988C25.3363 12.7387 25.6672 13.0679 26.2708 13.2959C27.6467 13.8157 29.851 13.7013 32.3888 13.3749C35.2255 13.0102 37.7774 11.2258 40.0289 9.3629C42.0428 7.69659 42.6659 5.71511 42.9278 4.09675C43.0523 3.32707 42.8109 2.64133 42.2609 2.1301C41.0934 1.04478 38.0732 0.890847 34.341 1.05639C29.9865 1.24954 25.7511 3.56719 21.7809 5.98189C17.8481 8.37394 15.2058 11.628 13.0081 14.5273C11.1474 16.982 10.856 19.1699 11.0527 20.6391C11.1459 21.3354 11.9953 21.811 13.1487 22.1758C19.0312 24.0358 26.9355 20.7807 32.8321 17.4561C34.96 16.2564 35.5087 14.7831 35.7522 13.8774C35.864 13.4615 35.715 13.1082 35.3863 12.8649C34.6586 12.326 32.9331 12.4211 30.9137 12.7293C28.6642 13.0725 26.7676 14.7177 25.1108 16.5326C23.5078 18.2883 23.2659 20.2655 23.2879 21.7542C23.2981 22.4384 23.7177 22.9572 24.2596 23.3345C25.3737 24.1104 27.2231 24.1129 28.9437 23.8213C33.0066 23.1327 33.4385 17.046 33.1372 12.3571C33.0066 10.3249 30.824 9.04841 28.9345 8.2786C27.0992 7.53082 24.8753 7.948 22.9983 8.54834C21.0543 9.17011 20.1248 10.8534 19.4469 12.2819C18.8272 13.588 19.1132 14.8239 19.5415 15.7067C19.7431 16.1221 20.3258 16.3226 21.0111 16.4619C24.4964 17.1704 29.3199 14.6236 33.0776 11.9386C34.7055 10.7753 34.972 9.0816 35.1415 7.7469C35.222 7.11325 34.9428 6.55669 34.4953 6.10686C33.571 5.17764 31.6196 4.88688 29.572 4.85414C27.4767 4.82063 25.6584 6.13591 24.2516 7.73584C22.7594 9.43279 22.9611 11.7544 23.3391 13.8163C23.5248 14.8294 24.2486 15.6961 25.1078 16.3874C26.8183 17.7635 29.8202 18.1551 33.0511 18.1636C36.3864 18.1725 39.2781 16.4266 41.6584 14.5277C44.0121 12.6499 45.029 10.4505 45.4863 8.76556C45.6954 7.99514 45.3854 7.34485 44.87 6.82443C43.7911 5.73506 41.3044 5.41996 38.533 5.37734C35.6753 5.33339 33.1425 6.55086 31.2021 7.93666C29.3806 9.23751 29.0813 11.1286 29.0314 12.6348C29.0072 13.3633 29.4227 14.0087 29.961 14.5575C31.0525 15.6704 33.0732 16.1522 35.133 16.4015C37.1365 16.644 38.9333 16.2409 40.3027 15.7845C40.9613 15.565 41.4137 15.1731 41.7355 14.8234C42.0573 14.4737 42.201 14.1278 42.0247 13.7895C40.8942 11.6217 32.9956 11.7939 26.1611 12.367C23.0204 12.6304 21.0657 14.3661 19.9017 15.7507C19.3396 16.4192 19.2317 17.1851 19.301 17.9048C19.44 19.3483 21.0962 20.5984 23.3558 21.613C25.8252 22.7219 29.156 22.7078 32.3106 22.5012C35.4027 22.2987 37.6687 20.3922 39.2608 18.4769C40.7803 16.6488 40.5294 14.4942 39.9981 12.8177C39.7433 12.0136 38.8802 11.4578 37.893 11.0302C35.8072 10.1267 33.0313 10.2078 30.5003 10.6499C29.2578 10.8669 28.3068 11.5761 27.5677 12.4205C26.0121 14.1978 25.9299 16.6661 26.2213 18.9408C26.4911 21.0465 28.7487 22.4786 31.0396 23.4149C33.293 24.336 35.9234 23.8818 38.0355 23.0418C40.2967 22.1425 40.9559 19.7086 41.4601 17.5782C41.9218 15.6267 41.2927 13.782 40.39 12.181C39.527 10.6504 37.6914 9.9535 36.1337 9.65152C34.5662 9.34761 32.9604 9.73398 31.6211 10.3599C28.4879 11.8242 29.5059 16.2972 30.7253 19.2469C31.2637 20.5491 33.6386 20.763 35.5423 20.8257C37.5249 20.891 39.3038 19.8617 40.7055 18.6702C42.0993 17.4855 42.3082 15.8849 42.3072 14.604C42.3067 13.9895 41.9045 13.4656 41.2643 13.0151C39.8522 12.0214 37.1046 11.6721 33.9242 11.4851C30.6463 11.2923 27.4591 12.3384 24.6901 13.6817C21.9861 14.9935 20.7539 17.181 20.0331 18.997C19.6923 19.8558 19.7659 20.6572 20.0469 21.3057C20.328 21.9542 20.9074 22.4434 21.8103 22.7959C23.795 23.5709 26.9279 23.3418 30.5026 22.6548C38.0235 21.2094 41.7276 16.0551 43.8842 12.4749C44.33 11.7348 43.977 11.0112 43.5483 10.412C42.6539 9.16183 40.2671 8.48349 37.413 8.02867C34.3057 7.53351 30.9218 8.09966 27.7968 8.91749C24.7295 9.72021 22.6986 11.7577 21.1087 13.6055C19.629 15.3254 19.5455 17.2874 19.6499 18.874C19.7 19.635 20.19 20.2713 20.9072 20.8014C24.4738 23.4382 32.9097 22.4663 39.0845 21.1149C41.6333 20.5571 42.7515 18.8042 43.3055 17.6085C43.5678 17.0426 43.1827 16.4489 42.5564 15.9042C39.3244 13.0937 28.7158 12.8394 22.3766 13.4311C21.514 13.7913 20.884 14.2897 20.4469 14.8475C20.0098 15.4054 19.7847 16.0077 19.5528 16.6282" stroke="white" stroke-width="2" stroke-linecap="round"/>
</svg>
